<svg id="Capa_1" enable-background="new 0 0 497 497" height="512" viewBox="0 0 497 497" width="512" xmlns="http://www.w3.org/2000/svg"><g><path d="m134.947 391.121s-57.989 28.11-57.989 105.879h92.536l24.638-23.619v-82.26z" fill="#fccb88"/><path d="m362.054 391.121s57.989 28.11 57.989 105.879h-92.536l-24.638-23.619v-82.26z" fill="#fccb88"/><path d="m302.869 303.963v168.526l-19.13 24.511h-70.477l-19.13-24.511v-168.526z" fill="#ff889e"/><path d="m99.573 303.963s-33.381 71.421 43.998 110.34c15.808 7.951 25.923 23.984 25.923 41.679v41.018h43.769v-193.037z" fill="#fbe29f"/><path d="m33.784 214.716c0-118.394 96.321-214.716 214.716-214.716s214.716 96.321 214.716 214.716z" fill="#5c586f"/><path d="m397.428 303.963s33.381 71.421-43.998 110.34c-15.808 7.951-25.923 23.984-25.923 41.679v41.018h-43.769v-193.037z" fill="#fbe29f"/><g><circle cx="424.138" cy="222.693" fill="#c7856a" r="49.296"/></g><path d="m115.322 200.682c0-93.516 56-172.834 133.605-200.676-.143-.001-.284-.006-.427-.006-118.395 0-214.716 96.321-214.716 214.716h81.976c-.281-4.64-.438-9.317-.438-14.034z" fill="#4f4c5f"/><path d="m416.346 164.217c-2.778-9.666-12.585-15.522-22.422-13.431-115.424 24.542-196.223-36.347-231.576-71.204-7.09-6.991-18.289-7.386-25.921-.992-38.732 32.45-63.178 81.39-62.533 136.02 1.132 95.89 78.71 172.51 174.607 172.51 96.439 0 174.618-78.18 174.618-174.619 0-16.751-2.365-32.95-6.773-48.284z" fill="#da9d81"/><path d="m130.628 471.729c-7.538-2.124-11.926-9.955-9.803-17.493 8.698-30.878 33.797-48.605 34.861-49.344 6.43-4.469 15.266-2.878 19.734 3.553 4.456 6.413 2.887 15.218-3.5 19.698-.388.278-17.959 13.046-23.801 33.783-2.123 7.539-9.955 11.926-17.491 9.803z" fill="#ff889e"/><path d="m366.374 471.729c7.538-2.124 11.926-9.955 9.803-17.493-8.698-30.878-33.797-48.605-34.861-49.344-6.43-4.469-15.266-2.878-19.734 3.553-4.456 6.413-2.887 15.218 3.5 19.698.388.278 17.959 13.046 23.801 33.783 2.123 7.539 9.955 11.926 17.491 9.803z" fill="#ff889e"/><path d="m212.118 383.342c-57.89-36.636-96.796-104.715-96.796-182.66 0-47.214 14.277-90.808 38.398-125.989-5.867-1.528-12.332-.259-17.293 3.897-28.748 24.084-49.613 57.259-58.203 95.097-1.761-.19-3.55-.291-5.362-.291-27.226 0-49.296 22.071-49.296 49.296s22.071 49.296 49.296 49.296c3.75 0 7.399-.428 10.908-1.224 19.991 56.841 68.456 99.972 128.348 112.578z" fill="#c7856a"/><g fill="#fff"><ellipse cx="147.85" cy="244.19" rx="37.138" ry="29.575"/><ellipse cx="349.15" cy="244.19" rx="37.138" ry="29.575"/></g><g><g><path d="m169.494 223.22c-4.142 0-7.5-3.357-7.5-7.5v-15.182c0-4.143 3.358-7.5 7.5-7.5s7.5 3.357 7.5 7.5v15.182c0 4.142-3.358 7.5-7.5 7.5z" fill="#423e4f"/></g><g><path d="m327.506 223.22c-4.142 0-7.5-3.357-7.5-7.5v-15.182c0-4.143 3.358-7.5 7.5-7.5s7.5 3.357 7.5 7.5v15.182c0 4.142-3.358 7.5-7.5 7.5z" fill="#423e4f"/></g><g><path d="m248.5 232.257c-10.15 0-19.803-4.396-26.483-12.062-2.721-3.123-2.396-7.86.727-10.582s7.86-2.396 10.582.727c3.831 4.396 9.361 6.917 15.175 6.917s11.345-2.521 15.175-6.917c2.721-3.123 7.459-3.448 10.582-.727 3.123 2.722 3.448 7.459.727 10.582-6.682 7.666-16.334 12.062-26.485 12.062z" fill="#423e4f"/></g></g></g></svg>